<svg id="visual" viewBox="0 0 960 540" width="960" height="540" xmlns="http://www.w3.org/2000/svg" xmlns:xlink="http://www.w3.org/1999/xlink" version="1.1"><path d="M0 158L22.8 167.8C45.7 177.7 91.3 197.3 137 185.5C182.7 173.7 228.3 130.3 274 122.2C319.7 114 365.3 141 411.2 148.3C457 155.7 503 143.3 548.8 148.8C594.7 154.3 640.3 177.7 686 173.2C731.7 168.7 777.3 136.3 823 122.8C868.7 109.3 914.3 114.7 937.2 117.3L960 120L960 0L937.2 0C914.3 0 868.7 0 823 0C777.3 0 731.7 0 686 0C640.3 0 594.7 0 548.8 0C503 0 457 0 411.2 0C365.3 0 319.7 0 274 0C228.3 0 182.7 0 137 0C91.3 0 45.7 0 22.8 0L0 0Z" fill="#0066ff"></path><path d="M0 347L22.8 345.2C45.7 343.3 91.3 339.7 137 329.7C182.7 319.7 228.3 303.3 274 288.8C319.7 274.3 365.3 261.7 411.2 271.7C457 281.7 503 314.3 548.8 327.8C594.7 341.3 640.3 335.7 686 334.7C731.7 333.7 777.3 337.3 823 336.5C868.7 335.7 914.3 330.3 937.2 327.7L960 325L960 118L937.2 115.3C914.3 112.7 868.7 107.3 823 120.8C777.3 134.3 731.7 166.7 686 171.2C640.3 175.7 594.7 152.3 548.8 146.8C503 141.3 457 153.7 411.2 146.3C365.3 139 319.7 112 274 120.2C228.3 128.3 182.7 171.7 137 183.5C91.3 195.3 45.7 175.7 22.8 165.8L0 156Z" fill="#3e8cff"></path><path d="M0 433L22.8 426.7C45.7 420.3 91.3 407.7 137 394.2C182.7 380.7 228.3 366.3 274 356.5C319.7 346.7 365.3 341.3 411.2 348.5C457 355.7 503 375.3 548.8 386.2C594.7 397 640.3 399 686 397.2C731.7 395.3 777.3 389.7 823 386.8C868.7 384 914.3 384 937.2 384L960 384L960 323L937.2 325.7C914.3 328.3 868.7 333.7 823 334.5C777.3 335.3 731.7 331.7 686 332.7C640.3 333.7 594.7 339.3 548.8 325.8C503 312.3 457 279.7 411.2 269.7C365.3 259.7 319.7 272.3 274 286.8C228.3 301.3 182.7 317.7 137 327.7C91.3 337.7 45.7 341.3 22.8 343.2L0 345Z" fill="#75afff"></path><path d="M0 492L22.8 486.7C45.7 481.3 91.3 470.7 137 465.3C182.7 460 228.3 460 274 458.2C319.7 456.3 365.3 452.7 411.2 455.3C457 458 503 467 548.8 470.7C594.7 474.3 640.3 472.7 686 473.7C731.7 474.7 777.3 478.3 823 472.8C868.7 467.3 914.3 452.7 937.2 445.3L960 438L960 382L937.2 382C914.3 382 868.7 382 823 384.8C777.3 387.7 731.7 393.3 686 395.2C640.3 397 594.7 395 548.8 384.2C503 373.3 457 353.7 411.2 346.5C365.3 339.3 319.7 344.7 274 354.5C228.3 364.3 182.7 378.7 137 392.2C91.3 405.7 45.7 418.3 22.8 424.7L0 431Z" fill="#adcff7"></path><path d="M0 541L22.8 541C45.7 541 91.3 541 137 541C182.7 541 228.3 541 274 541C319.7 541 365.3 541 411.2 541C457 541 503 541 548.8 541C594.7 541 640.3 541 686 541C731.7 541 777.3 541 823 541C868.7 541 914.3 541 937.2 541L960 541L960 436L937.2 443.3C914.3 450.7 868.7 465.3 823 470.8C777.3 476.3 731.7 472.7 686 471.7C640.3 470.7 594.7 472.3 548.8 468.7C503 465 457 456 411.2 453.3C365.3 450.7 319.7 454.3 274 456.2C228.3 458 182.7 458 137 463.3C91.3 468.7 45.7 479.3 22.8 484.7L0 490Z" fill="#e9ecef"></path></svg>