<svg id="visual" viewBox="0 0 960 540" width="960" height="540" xmlns="http://www.w3.org/2000/svg" xmlns:xlink="http://www.w3.org/1999/xlink" version="1.1"><path d="M0 39L32 36.3C64 33.7 128 28.3 192 25.7C256 23 320 23 384 23C448 23 512 23 576 24.7C640 26.3 704 29.7 768 32.3C832 35 896 37 928 38L960 39L960 0L928 0C896 0 832 0 768 0C704 0 640 0 576 0C512 0 448 0 384 0C320 0 256 0 192 0C128 0 64 0 32 0L0 0Z" fill="#0043a6"></path><path d="M0 152L32 148.5C64 145 128 138 192 133.5C256 129 320 127 384 131.5C448 136 512 147 576 146.2C640 145.3 704 132.7 768 127.2C832 121.7 896 123.3 928 124.2L960 125L960 37L928 36C896 35 832 33 768 30.3C704 27.7 640 24.3 576 22.7C512 21 448 21 384 21C320 21 256 21 192 23.7C128 26.3 64 31.7 32 34.3L0 37Z" fill="#1f52af"></path><path d="M0 168L32 165.3C64 162.7 128 157.3 192 153.8C256 150.3 320 148.7 384 153.2C448 157.7 512 168.3 576 167.3C640 166.3 704 153.7 768 147.3C832 141 896 141 928 141L960 141L960 123L928 122.2C896 121.3 832 119.7 768 125.2C704 130.7 640 143.3 576 144.2C512 145 448 134 384 129.5C320 125 256 127 192 131.5C128 136 64 143 32 146.5L0 150Z" fill="#3362b7"></path><path d="M0 206L32 203.3C64 200.7 128 195.3 192 192.7C256 190 320 190 384 192.7C448 195.3 512 200.7 576 196.2C640 191.7 704 177.3 768 173.8C832 170.3 896 177.7 928 181.3L960 185L960 139L928 139C896 139 832 139 768 145.3C704 151.7 640 164.3 576 165.3C512 166.3 448 155.7 384 151.2C320 146.7 256 148.3 192 151.8C128 155.3 64 160.7 32 163.3L0 166Z" fill="#4671be"></path><path d="M0 222L32 221.2C64 220.3 128 218.7 192 218.7C256 218.7 320 220.3 384 222.2C448 224 512 226 576 220.7C640 215.3 704 202.7 768 198.2C832 193.7 896 197.3 928 199.2L960 201L960 183L928 179.3C896 175.7 832 168.3 768 171.8C704 175.3 640 189.7 576 194.2C512 198.7 448 193.3 384 190.7C320 188 256 188 192 190.7C128 193.3 64 198.7 32 201.3L0 204Z" fill="#5881c5"></path><path d="M0 260L32 259.2C64 258.3 128 256.7 192 255.8C256 255 320 255 384 254C448 253 512 251 576 246.5C640 242 704 235 768 231.5C832 228 896 228 928 228L960 228L960 199L928 197.2C896 195.3 832 191.7 768 196.2C704 200.7 640 213.3 576 218.7C512 224 448 222 384 220.2C320 218.3 256 216.7 192 216.7C128 216.7 64 218.3 32 219.2L0 220Z" fill="#6b90cc"></path><path d="M0 325L32 324.2C64 323.3 128 321.7 192 321.7C256 321.7 320 323.3 384 323.3C448 323.3 512 321.7 576 312.7C640 303.7 704 287.3 768 286.3C832 285.3 896 299.7 928 306.8L960 314L960 226L928 226C896 226 832 226 768 229.5C704 233 640 240 576 244.5C512 249 448 251 384 252C320 253 256 253 192 253.8C128 254.7 64 256.3 32 257.2L0 258Z" fill="#7ea0d2"></path><path d="M0 352L32 353.8C64 355.7 128 359.3 192 361.2C256 363 320 363 384 364.8C448 366.7 512 370.3 576 363.2C640 356 704 338 768 332.5C832 327 896 334 928 337.5L960 341L960 312L928 304.8C896 297.7 832 283.3 768 284.3C704 285.3 640 301.7 576 310.7C512 319.7 448 321.3 384 321.3C320 321.3 256 319.7 192 319.7C128 319.7 64 321.3 32 322.2L0 323Z" fill="#91afd8"></path><path d="M0 368L32 371.7C64 375.3 128 382.7 192 384.5C256 386.3 320 382.7 384 384.5C448 386.3 512 393.7 576 388.3C640 383 704 365 768 357.7C832 350.3 896 353.7 928 355.3L960 357L960 339L928 335.5C896 332 832 325 768 330.5C704 336 640 354 576 361.2C512 368.3 448 364.7 384 362.8C320 361 256 361 192 359.2C128 357.3 64 353.7 32 351.8L0 350Z" fill="#a6bfde"></path><path d="M0 460L32 462.7C64 465.3 128 470.7 192 474.3C256 478 320 480 384 481C448 482 512 482 576 481C640 480 704 478 768 476.2C832 474.3 896 472.7 928 471.8L960 471L960 355L928 353.3C896 351.7 832 348.3 768 355.7C704 363 640 381 576 386.3C512 391.7 448 384.3 384 382.5C320 380.7 256 384.3 192 382.5C128 380.7 64 373.3 32 369.7L0 366Z" fill="#bbcee3"></path><path d="M0 476L32 479.7C64 483.3 128 490.7 192 496.2C256 501.7 320 505.3 384 507.2C448 509 512 509 576 508C640 507 704 505 768 502.2C832 499.3 896 495.7 928 493.8L960 492L960 469L928 469.8C896 470.7 832 472.3 768 474.2C704 476 640 478 576 479C512 480 448 480 384 479C320 478 256 476 192 472.3C128 468.7 64 463.3 32 460.7L0 458Z" fill="#d2dde9"></path><path d="M0 541L32 541C64 541 128 541 192 541C256 541 320 541 384 541C448 541 512 541 576 541C640 541 704 541 768 541C832 541 896 541 928 541L960 541L960 490L928 491.8C896 493.7 832 497.3 768 500.2C704 503 640 505 576 506C512 507 448 507 384 505.2C320 503.3 256 499.7 192 494.2C128 488.7 64 481.3 32 477.7L0 474Z" fill="#e9ecef"></path></svg>