<svg id="visual-mobile" viewBox="0 0 1080 1920" width="1080" height="1920" xmlns="http://www.w3.org/2000/svg" xmlns:xlink="http://www.w3.org/1999/xlink" version="1.1"><path d="M0 558L25.7 593.2C51.3 628.3 102.7 698.7 154.2 657C205.7 615.3 257.3 461.7 308.8 432.8C360.3 404 411.7 500 463 525.7C514.3 551.3 565.7 506.7 617 525.8C668.3 545 719.7 628 771.2 612C822.7 596 874.3 481 925.8 433C977.3 385 1028.7 404 1054.3 413.5L1080 423L1080 0L1054.3 0C1028.7 0 977.3 0 925.8 0C874.3 0 822.7 0 771.2 0C719.7 0 668.3 0 617 0C565.7 0 514.3 0 463 0C411.7 0 360.3 0 308.8 0C257.3 0 205.7 0 154.2 0C102.7 0 51.3 0 25.7 0L0 0Z" fill="#0066ff"></path><path d="M0 1230L25.7 1223.5C51.3 1217 102.7 1204 154.2 1168.8C205.7 1133.7 257.3 1076.3 308.8 1025.2C360.3 974 411.7 929 463 964.2C514.3 999.3 565.7 1114.7 617 1162.7C668.3 1210.7 719.7 1191.3 771.2 1188.2C822.7 1185 874.3 1198 925.8 1194.8C977.3 1191.7 1028.7 1172.3 1054.3 1162.7L1080 1153L1080 421L1054.3 411.5C1028.7 402 977.3 383 925.8 431C874.3 479 822.7 594 771.2 610C719.7 626 668.3 543 617 523.8C565.7 504.7 514.3 549.3 463 523.7C411.7 498 360.3 402 308.8 430.8C257.3 459.7 205.7 613.3 154.2 655C102.7 696.7 51.3 626.3 25.7 591.2L0 556Z" fill="#3e8cff"></path><path d="M0 1537L25.7 1514.7C51.3 1492.3 102.7 1447.7 154.2 1399.7C205.7 1351.7 257.3 1300.3 308.8 1265C360.3 1229.7 411.7 1210.3 463 1236C514.3 1261.7 565.7 1332.3 617 1370.8C668.3 1409.3 719.7 1415.7 771.2 1409.2C822.7 1402.7 874.3 1383.3 925.8 1373.7C977.3 1364 1028.7 1364 1054.3 1364L1080 1364L1080 1151L1054.3 1160.7C1028.7 1170.3 977.3 1189.7 925.8 1192.8C874.3 1196 822.7 1183 771.2 1186.2C719.7 1189.3 668.3 1208.7 617 1160.7C565.7 1112.7 514.3 997.3 463 962.2C411.7 927 360.3 972 308.8 1023.2C257.3 1074.3 205.7 1131.7 154.2 1166.8C102.7 1202 51.3 1215 25.7 1221.5L0 1228Z" fill="#75afff"></path><path d="M0 1748L25.7 1728.8C51.3 1709.7 102.7 1671.3 154.2 1652.2C205.7 1633 257.3 1633 308.8 1626.7C360.3 1620.3 411.7 1607.7 463 1617.3C514.3 1627 565.7 1659 617 1671.7C668.3 1684.3 719.7 1677.7 771.2 1680.8C822.7 1684 874.3 1697 925.8 1677.8C977.3 1658.7 1028.7 1607.3 1054.3 1581.7L1080 1556L1080 1362L1054.3 1362C1028.7 1362 977.3 1362 925.8 1371.7C874.3 1381.3 822.7 1400.7 771.2 1407.2C719.7 1413.7 668.3 1407.3 617 1368.8C565.7 1330.3 514.3 1259.7 463 1234C411.7 1208.3 360.3 1227.7 308.8 1263C257.3 1298.3 205.7 1349.7 154.2 1397.7C102.7 1445.7 51.3 1490.3 25.7 1512.7L0 1535Z" fill="#adcff7"></path><path d="M0 1921L25.7 1921C51.3 1921 102.7 1921 154.2 1921C205.7 1921 257.3 1921 308.8 1921C360.3 1921 411.7 1921 463 1921C514.3 1921 565.7 1921 617 1921C668.3 1921 719.7 1921 771.2 1921C822.7 1921 874.3 1921 925.8 1921C977.3 1921 1028.7 1921 1054.3 1921L1080 1921L1080 1554L1054.3 1579.7C1028.7 1605.3 977.3 1656.7 925.8 1675.8C874.3 1695 822.7 1682 771.2 1678.8C719.7 1675.7 668.3 1682.3 617 1669.7C565.7 1657 514.3 1625 463 1615.3C411.7 1605.7 360.3 1618.3 308.8 1624.7C257.3 1631 205.7 1631 154.2 1650.2C102.7 1669.3 51.3 1707.7 25.7 1726.8L0 1746Z" fill="#e9ecef"></path></svg>