<svg id="visual" viewBox="0 0 1600 1200" width="1600" height="1200" xmlns="http://www.w3.org/2000/svg" xmlns:xlink="http://www.w3.org/1999/xlink" version="1.1"><rect x="0" y="0" width="1600" height="1200" fill="#FFFFFF"></rect><path d="M0 603L53.3 598.3C106.7 593.7 213.3 584.3 320 602C426.7 619.7 533.3 664.3 640 671.8C746.7 679.3 853.3 649.7 960 621.3C1066.7 593 1173.3 566 1280 561C1386.7 556 1493.3 573 1546.7 581.5L1600 590L1600 0L1546.7 0C1493.3 0 1386.7 0 1280 0C1173.3 0 1066.7 0 960 0C853.3 0 746.7 0 640 0C533.3 0 426.7 0 320 0C213.3 0 106.7 0 53.3 0L0 0Z" fill="#0066FF" stroke-linecap="round" stroke-linejoin="miter"></path></svg>